<?xml version="1.0" encoding="UTF-8"?>
<svg width="115px" height="76px" viewBox="0 0 115 76" version="1.1" xmlns="http://www.w3.org/2000/svg" xmlns:xlink="http://www.w3.org/1999/xlink">
    <title>43E61FD7-4E10-4F89-8183-C93BAC9A5C3C@1x</title>
    <defs>
        <rect id="path-1" x="0" y="0" width="114.79007" height="14.0877333"></rect>
        <rect id="path-3" x="0" y="0" width="114.900022" height="52.798812"></rect>
    </defs>
    <g id="Page-1" stroke="none" stroke-width="1" fill="none" fill-rule="evenodd">
        <g id="Artboard" transform="translate(-301.000000, -204.000000)">
            <g id="IWIS/LOGO/with-tagline" transform="translate(301.000000, 204.000000)">
                <g id="Clipped" transform="translate(0.000000, 61.855212)">
                    <mask id="mask-2" fill="white">
                        <use xlink:href="#path-1"></use>
                    </mask>
                    <g id="Rectangle"></g>
                    <g id="g371" mask="url(#mask-2)" fill="#757575" fill-rule="nonzero">
                        <g transform="translate(0.000000, -0.060376)" id="path369">
                            <path d="M0,2.747108 L1.28943913,2.747108 L2.53889565,9.16708933 L2.53889565,9.16708933 L3.85832174,2.747108 L5.33767826,2.747108 L6.62711739,9.16708933 L6.62711739,9.16708933 L7.8365913,2.747108 L9.15601739,2.747108 L7.29682609,10.656364 L5.9973913,10.656364 L4.58800435,4.18606933 L4.58800435,4.18606933 L3.24858696,10.656364 L1.8192087,10.656364 L0,2.747108 Z M10.1555826,0.130814667 L11.3850478,0.130814667 L11.3850478,1.539588 L10.1555826,1.539588 L10.1555826,0.130814667 Z M10.1555826,2.747108 L11.3850478,2.747108 L11.3850478,10.656364 L10.1555826,10.656364 L10.1555826,2.747108 Z M13.0243348,2.747108 L14.2538,2.747108 L14.2538,3.91437733 L14.2538,3.91437733 C14.6036478,3.16974 15.0634478,2.535792 15.9430652,2.535792 C16.1274787,2.52442686 16.3120467,2.55539443 16.4828304,2.626356 L16.4828304,3.833876 C16.2658158,3.78928532 16.0445618,3.76903646 15.8231174,3.7735 C14.8871409,3.85883326 14.190213,4.68109095 14.2538,5.62503067 L14.2538,10.656364 L12.9943478,10.656364 L13.0243348,2.747108 Z M20.8109478,0.130814667 L21.9904348,0.130814667 L21.9904348,3.61249733 L21.9904348,3.61249733 C22.3368051,2.92986521 23.0382991,2.50458629 23.7996478,2.51566667 C25.9087304,2.51566667 26.1686174,5.011208 26.1686174,6.66148533 C26.1686174,8.875272 25.4289391,10.7972413 23.6197261,10.7972413 C22.8952679,10.78451 22.2508434,10.3307865 21.9904348,9.65009733 L21.9904348,9.65009733 L21.9904348,10.656364 L20.8109478,10.656364 L20.8109478,0.130814667 Z M23.5297652,9.76078667 C24.6692696,9.76078667 24.9591435,8.46270267 24.9591435,6.68161067 C24.9591435,4.90051867 24.6692696,3.61249733 23.5297652,3.61249733 C22.2203348,3.61249733 21.9904348,5.15208533 21.9904348,6.68161067 C21.9904348,8.211136 22.2503217,9.76078667 23.5597522,9.76078667 M28.5575783,6.822488 C28.5575783,8.01994533 28.5575783,9.841288 30.0569261,9.841288 C31.2264174,9.841288 31.3863478,8.61364267 31.3863478,8.01994533 L32.6058174,8.01994533 C32.6440839,8.74509747 32.3858092,9.45441036 31.8910759,9.98287578 C31.3963426,10.5113412 30.7082814,10.8128879 29.9869565,10.8173667 C28.077787,10.8173667 27.2781348,9.479032 27.2781348,6.7923 C27.2781348,4.77976667 27.6579696,2.54585467 30.0569261,2.54585467 C32.4558826,2.54585467 32.6657913,4.618764 32.6657913,6.32941733 L32.6657913,6.822488 L28.5575783,6.822488 Z M31.3863478,5.81622133 L31.3863478,5.42377733 C31.3863478,4.54832533 31.1064696,3.501808 30.0269391,3.501808 C28.7474957,3.501808 28.5975609,5.09170933 28.5975609,5.51434133 L28.5975609,5.80615867 L31.3863478,5.81622133 Z M33.3854783,2.70685733 L34.6749174,2.70685733 L35.9243739,9.12683867 L35.9243739,9.12683867 L37.2537957,2.70685733 L38.6931696,2.70685733 L39.9826087,9.16708933 L39.9826087,9.16708933 L41.182087,2.747108 L42.4715261,2.747108 L40.6423217,10.656364 L39.3029043,10.656364 L37.9834783,4.18606933 L37.9834783,4.18606933 L36.5940826,10.656364 L35.1647043,10.656364 L33.3854783,2.70685733 Z M44.4906478,6.731924 C44.4906478,7.92938133 44.4906478,9.750724 45.9899957,9.750724 C47.159487,9.750724 47.3194174,8.52307867 47.3194174,7.92938133 L48.538887,7.92938133 C48.5771535,8.65453347 48.3188787,9.36384636 47.8241455,9.89231178 C47.3294122,10.4207772 46.6413509,10.7223239 45.9200261,10.7268027 C44.0108565,10.7268027 43.2112043,9.388468 43.2112043,6.701736 C43.2112043,4.68920267 43.5910391,2.45529067 45.9899957,2.45529067 C48.3889522,2.45529067 48.5488826,4.618764 48.5488826,6.32941733 L48.5488826,6.822488 L44.4906478,6.731924 Z M47.3194174,5.72565733 L47.3194174,5.42377733 C47.3194174,4.54832533 47.0395391,3.501808 45.9600087,3.501808 C44.6805652,3.501808 44.5306304,5.09170933 44.5306304,5.51434133 L44.5306304,5.80615867 L47.3194174,5.72565733 Z M54.976087,10.11298 C54.976087,12.4575813 53.8965565,13.3028453 52.3272391,13.3028453 C51.7276143,13.3886798 51.1187882,13.2296189 50.6362982,12.8610729 C50.1538082,12.4925268 49.8377038,11.9450871 49.7583565,11.3406253 L50.9878217,11.3406253 C51.0123857,11.6445034 51.1603672,11.9247263 51.396855,12.115185 C51.6333429,12.3056436 51.9373941,12.3894714 52.2372783,12.346892 C53.8165913,12.346892 53.7566174,11.1293093 53.7566174,10.5859253 L53.7566174,9.57965867 L53.7566174,9.57965867 C53.440655,10.2734153 52.7342152,10.70092 51.9773913,10.656364 C49.6983826,10.656364 49.5584435,7.76837867 49.5584435,6.731924 C49.5584435,4.59863867 50.1182,2.58604693 52.1073348,2.58604693 C52.8701243,2.57991348 53.5509727,3.06659734 53.7966,3.79362533 L53.7966,3.79362533 L53.7966,2.78735867 L54.976087,2.78735867 L54.976087,10.11298 Z M50.8278913,6.68161067 C50.8278913,7.94950667 51.0178087,9.54947067 52.2372783,9.54947067 C53.4567478,9.54947067 53.826587,8.29163733 53.826587,6.68161067 C53.826587,5.071584 53.6066826,3.61249733 52.2972522,3.61249733 C51.1577478,3.61249733 50.8678739,4.82001733 50.8678739,6.701736 M57.6149391,6.84261333 C57.6149391,8.04007067 57.6149391,9.86141333 59.114287,9.86141333 C60.2737826,9.86141333 60.433713,8.633768 60.433713,8.04007067 L61.6631783,8.04007067 C61.7014448,8.7652228 61.44317,9.4745357 60.9484368,10.0030011 C60.4537035,10.5314665 59.7656422,10.8330132 59.0443174,10.837492 C57.1351478,10.837492 56.3354957,9.49915733 56.3354957,6.81242533 C56.3354957,4.799892 56.7053348,2.56598 59.114287,2.56598 C61.5232391,2.56598 61.7231522,4.618764 61.7231522,6.32941733 L61.7231522,6.822488 L57.6149391,6.84261333 Z M60.433713,5.83634667 L60.433713,5.42377733 C60.433713,4.54832533 60.1638304,3.501808 59.0843,3.501808 C57.8048565,3.501808 57.6549217,5.09170933 57.6549217,5.51434133 L57.6549217,5.80615867 L60.433713,5.83634667 Z M63.0425783,2.72698267 L64.2120696,2.72698267 L64.2120696,3.652748 L64.2120696,3.652748 C64.5745101,2.94171209 65.3075242,2.50051673 66.1012478,2.51566667 C68.1603522,2.51566667 68.1603522,4.08544267 68.1603522,5.011208 L68.1603522,10.656364 L66.9708696,10.656364 L66.9708696,5.18227333 C66.9708696,4.618764 66.9708696,3.61249733 65.8113739,3.61249733 C65.3934682,3.60368037 64.9906433,3.7697254 64.6988878,4.07106587 C64.4071322,4.37240634 64.2525743,4.78205543 64.2720435,5.20239867 L64.2720435,10.656364 L63.0425783,10.656364 L63.0425783,2.72698267 Z M78.4058957,10.656364 L77.2364043,10.656364 L77.2364043,9.65009733 L77.2364043,9.65009733 C76.9718731,10.3629112 76.2929884,10.8332761 75.5371435,10.8274832 C73.6879478,10.8274832 72.9882522,9.16708933 72.9882522,6.69167333 C72.9882522,5.041396 73.2581348,2.54585467 75.4471826,2.54585467 C76.1689152,2.54747315 76.8273627,2.96078713 77.1464435,3.61249733 L77.1464435,3.61249733 L77.1464435,0.130814667 L78.3759087,0.130814667 L78.4058957,10.656364 Z M75.6770826,9.8111 C77.0364913,9.8111 77.2563957,8.513016 77.2563957,6.731924 C77.2563957,5.20239867 76.986513,3.64268533 75.6770826,3.64268533 C74.5375783,3.64268533 74.2477043,4.85020533 74.2477043,6.731924 C74.2477043,8.61364267 74.5375783,9.8111 75.6770826,9.8111 M80.0651739,0.181128 L81.2846435,0.181128 L81.2846435,1.58990133 L80.0651739,1.58990133 L80.0651739,0.181128 Z M80.0651739,2.79742133 L81.2846435,2.79742133 L81.2846435,10.656364 L80.0651739,10.656364 L80.0651739,2.79742133 Z M83.9734739,6.822488 C83.9734739,8.01994533 83.9734739,9.841288 85.4728217,9.841288 C86.6323174,9.841288 86.8022435,8.61364267 86.8022435,8.01994533 L88.021713,8.01994533 C88.0571543,8.74607183 87.7965637,9.45528599 87.3002679,9.98340473 C86.8039722,10.5115235 86.1150029,10.8127559 85.3928565,10.8173667 C83.4936826,10.8173667 82.6940304,9.479032 82.6940304,6.7923 C82.6940304,4.77976667 83.0638696,2.54585467 85.4728217,2.54585467 C87.8817739,2.54585467 88.081687,4.618764 88.081687,6.32941733 L88.081687,6.822488 L83.9734739,6.822488 Z M86.8022435,5.81622133 L86.8022435,5.42377733 C86.8022435,4.54832533 86.5223652,3.501808 85.4428348,3.501808 C84.1633913,3.501808 84.0134565,5.09170933 84.0134565,5.51434133 L84.0134565,5.80615867 L86.8022435,5.81622133 Z M92.2298826,2.70685733 L93.5093261,2.70685733 L94.7687783,9.12683867 L94.7687783,9.12683867 L96.0882043,2.70685733 L97.5375739,2.70685733 L98.8370087,9.12683867 L98.8370087,9.12683867 L100.046483,2.70685733 L101.335922,2.70685733 L99.5267087,10.656364 L98.1872913,10.656364 L96.817887,4.23638267 L96.817887,4.23638267 L95.4784696,10.656364 L94.0490913,10.656364 L92.2298826,2.70685733 Z M103.315061,6.731924 C103.315061,7.92938133 103.315061,9.750724 104.824404,9.750724 C105.9839,9.750724 106.14383,8.52307867 106.14383,7.92938133 L107.373296,7.92938133 C107.408737,8.65550783 107.148146,9.36472199 106.651851,9.89284073 C106.155555,10.4209595 105.466586,10.7221919 104.744439,10.7268027 C102.83527,10.7268027 102.035617,9.388468 102.035617,6.701736 C102.035617,4.68920267 102.415452,2.45529067 104.824404,2.45529067 C107.233357,2.45529067 107.43327,4.558388 107.43327,6.248916 L107.43327,6.74198667 L103.315061,6.731924 Z M106.14383,5.72565733 L106.14383,5.42377733 C106.14383,4.54832533 105.863952,3.501808 104.794417,3.501808 C103.504978,3.501808 103.365039,5.09170933 103.365039,5.51434133 L103.365039,5.80615867 L106.14383,5.72565733 Z M108.832661,0 L110.05213,0 L110.05213,10.656364 L108.832661,10.656364 L108.832661,0 Z M112.061257,0.332068 L113.290722,0.332068 L113.290722,2.61629333 L114.640135,2.61629333 L114.640135,3.62256 L113.290722,3.62256 L113.290722,8.65389333 C113.290722,9.28784133 113.450652,9.539408 114.090374,9.539408 C114.270155,9.54952012 114.450358,9.54952012 114.630139,9.539408 L114.630139,10.5456747 C114.300813,10.6095493 113.965937,10.6398902 113.630574,10.6362387 C112.371122,10.6362387 112.061257,10.1029173 112.061257,9.07652533 L112.061257,3.713124 L110.951739,3.713124 L110.951739,2.70685733 L112.091243,2.70685733 L112.061257,0.332068 Z"></path>
                        </g>
                    </g>
                </g>
                <g id="Clipped">
                    <mask id="mask-4" fill="white">
                        <use xlink:href="#path-3"></use>
                    </mask>
                    <g id="Rectangle"></g>
                    <g id="g379" mask="url(#mask-4)" fill="#DC0A2E" fill-rule="nonzero">
                        <g transform="translate(0.049978, 0.000000)" id="path377">
                            <path d="M6.08735217,7.50674933 L0,7.50674933 L0,0 L6.08735217,0 L6.08735217,7.50674933 Z M0,14.218548 L6.08735217,14.218548 L6.08735217,51.5208533 L0,51.5208533 L0,14.218548 Z M52.2472739,51.5208533 L45.8000783,51.5208533 L38.2733522,21.8661747 L38.133413,21.8661747 L30.6766565,51.5208533 L24.0795261,51.5208533 L12.1747043,14.218548 L18.9417609,14.218548 L27.328113,44.738616 L27.4680522,44.738616 L34.9348043,14.218548 L41.6019043,14.218548 L49.3385391,44.738616 L49.4784783,44.738616 L57.7948609,14.218548 L64.1021174,14.218548 L52.2472739,51.5208533 Z M76.3367957,7.50674933 L70.2394478,7.50674933 L70.2394478,0 L76.3367957,0 L76.3367957,7.50674933 Z M70.2394478,14.218548 L76.3367957,14.218548 L76.3367957,51.5208533 L70.2394478,51.5208533 L70.2394478,14.218548 Z M89.5210609,39.757596 C89.7309696,45.2417493 94.518887,46.972528 99.516713,46.972528 C103.315061,46.972528 108.5128,46.1071387 108.5128,41.417936 C108.5128,36.7287333 102.515409,35.863344 96.3980696,34.4948213 C90.2807304,33.1262987 84.2133696,31.1037027 84.2133696,23.9592093 C84.2133696,16.45246 91.6001565,13.3531587 98.0473522,13.3531587 C106.223796,13.3531587 112.740961,15.9493267 113.250739,25.0359147 L107.153391,25.0359147 C106.723578,20.2762733 102.565387,18.7568107 98.5471348,18.7568107 C94.8987217,18.7568107 90.6705609,19.7630773 90.6705609,23.5265147 C90.6705609,27.9239 97.1177565,28.648412 102.785291,30.0169347 C108.90263,31.39552 114.900022,33.4080533 114.900022,40.6229853 C114.900022,49.50832 106.653609,52.3862427 99.1268826,52.3862427 C90.8105,52.3862427 83.7835565,48.995124 83.4337087,39.757596 L89.5210609,39.757596 Z"></path>
                        </g>
                    </g>
                </g>
            </g>
        </g>
    </g>
</svg>