<?xml version="1.0" encoding="UTF-8"?>
<svg width="115px" height="53px" viewBox="0 0 115 53" version="1.1" xmlns="http://www.w3.org/2000/svg" xmlns:xlink="http://www.w3.org/1999/xlink">
    <title>BB759191-0863-44D7-A8AA-F9CC9E0E7E57@1x</title>
    <defs>
        <rect id="path-1" x="0" y="0" width="114.95" height="52.47"></rect>
    </defs>
    <g id="Page-1" stroke="none" stroke-width="1" fill="none" fill-rule="evenodd">
        <g id="Artboard" transform="translate(-43.000000, -204.000000)">
            <g id="IWIS/LOGO/with-tagline-Copy" transform="translate(43.000000, 204.000000)">
                <g id="Clipped" transform="translate(0.000000, 0.000000)">
                    <mask id="mask-2" fill="white">
                        <use xlink:href="#path-1"></use>
                    </mask>
                    <g id="Rectangle"></g>
                    <g id="g379" mask="url(#mask-2)" fill="#DC0A2E" fill-rule="nonzero">
                        <g transform="translate(0.050000, 0.000000)" id="path377">
                            <path d="M6.09,7.46 L0,7.46 L0,0 L6.09,0 L6.09,7.46 Z M0,14.13 L6.09,14.13 L6.09,51.2 L0,51.2 L0,14.13 Z M52.27,51.2 L45.82,51.2 L38.29,21.73 L38.15,21.73 L30.69,51.2 L24.09,51.2 L12.18,14.13 L18.95,14.13 L27.34,44.46 L27.48,44.46 L34.95,14.13 L41.62,14.13 L49.36,44.46 L49.5,44.46 L57.82,14.13 L64.13,14.13 L52.27,51.2 Z M76.37,7.46 L70.27,7.46 L70.27,0 L76.37,0 L76.37,7.46 Z M70.27,14.13 L76.37,14.13 L76.37,51.2 L70.27,51.2 L70.27,14.13 Z M89.56,39.51 C89.77,44.96 94.56,46.68 99.56,46.68 C103.36,46.68 108.56,45.82 108.56,41.16 C108.56,36.5 102.56,35.64 96.44,34.28 C90.32,32.92 84.25,30.91 84.25,23.81 C84.25,16.35 91.64,13.27 98.09,13.27 C106.27,13.27 112.79,15.85 113.3,24.88 L107.2,24.88 C106.77,20.15 102.61,18.64 98.59,18.64 C94.94,18.64 90.71,19.64 90.71,23.38 C90.71,27.75 97.16,28.47 102.83,29.83 C108.95,31.2 114.95,33.2 114.95,40.37 C114.95,49.2 106.7,52.06 99.17,52.06 C90.85,52.06 83.82,48.69 83.47,39.51 L89.56,39.51 Z"></path>
                        </g>
                    </g>
                </g>
            </g>
        </g>
    </g>
</svg>