<?xml version="1.0" encoding="UTF-8"?>
<svg width="100px" height="30px" viewBox="0 0 100 30" version="1.1" xmlns="http://www.w3.org/2000/svg" xmlns:xlink="http://www.w3.org/1999/xlink">
    <title>D12F6D73-5D24-4274-8F4D-222776050E6B@1x</title>
    <g id="Page-1" stroke="none" stroke-width="1" fill="none" fill-rule="evenodd">
        <g id="Logo" transform="translate(-52.000000, -533.000000)" fill="#00A7DD">
            <g id="Combined-Shape" transform="translate(52.000000, 521.000000)">
                <path d="M11.4997482,15.9401607 C15.5513452,15.9401607 18.2953745,18.9971736 18.2953745,23 C18.2953745,27.0033121 15.5513452,30.0608108 11.4997482,30.0608108 C7.44915829,30.0608108 4.70412207,27.0033121 4.70412207,23 C4.70412207,18.9971736 7.44915829,15.9401607 11.4997482,15.9401607 M11.4997482,34 C17.903658,34 23,29.3360272 23,23 C23,16.6649444 17.903658,12 11.4997482,12 C5.09583854,12 0,16.6649444 0,23 C0,29.3360272 5.09583854,34 11.4997482,34 M39,34 L39,26.0823413 C39,22.1875 36.8023461,20 33.7522108,20 C31.818336,20 30.1790652,20.9007937 29.325573,22.5421627 L29.4261325,20.2891865 L25,20.2891865 L25,34 L29.4261325,34 L29.4261325,26.6617063 C29.4261325,24.9241071 30.475185,23.9573413 32.2448295,23.9573413 C33.8189136,23.9573413 34.5733622,24.827877 34.5733622,26.3725198 L34.5733622,34 L39,34 Z M48.3934426,35 C50.2728504,35 51.3648125,34.2648146 52,33.6978626 L50.4540656,30.5600767 C50.1817757,30.7591787 49.6969782,31.1609841 49.0309654,31.1609841 C48.3934426,31.1609841 47.9707627,30.858987 47.9707627,29.4236004 L47.9707627,24.1497124 L51.2728037,24.1497124 L51.2728037,20.4120481 L47.9707627,20.4120481 L47.9707627,13 L43.9102331,13 L43.9102331,20.4120481 L42,20.4120481 L42,24.1497124 L43.9102331,24.1497124 L43.9102331,29.2908657 C43.9102331,33.564099 45.7882397,35 48.3934426,35 M92.2423348,21 C92.2883258,21 92.3327839,21.0049258 92.3787749,21.0059109 C96.6845575,21.0684681 99.9943788,24.0125959 100,28.1182183 L100,28.1182183 L100,28.1384139 C99.9943788,32.2573359 96.616082,35.1921047 92.2423348,35.1921047 C87.8655216,35.1921047 84.4509429,32.2529027 84.4509429,28.1285624 C84.4509429,26.6931954 84.8658842,25.4041236 85.5802782,24.3248892 L85.5802782,24.3248892 L82.097224,24.3248892 C82.4298925,24.8036732 82.5949492,25.3799873 82.5949492,25.9873338 C82.5949492,28.8964887 80.2724021,31.0377173 76.65904,31.0377173 C75.5307266,31.0377173 74.570025,30.8771375 73.7733582,30.4934206 C73.54187,30.6840476 73.409518,30.9726972 73.409518,31.323904 C73.409518,31.9637604 73.8392786,32.3794948 74.8689668,32.4120048 L74.8689668,32.4120048 L78.3484439,32.5706143 C82.1963603,32.7637042 84.3845114,34.2975864 84.3845114,36.9506017 C84.3845114,39.8198579 82.2055585,41.9886708 76.6334894,42 L76.6334894,42 L76.572168,42 C71.5141764,41.9940891 69,40.1094926 69,37.5259307 C69,36.0555908 69.9949393,35.0965449 71.5862291,34.5202309 C70.426233,33.9138695 69.8947811,33.0198438 69.8947811,31.7731335 C69.8947811,30.5554852 70.5912897,29.6314123 71.850933,29.0876082 C71.0552881,28.2561396 70.5912897,27.1700092 70.5912897,25.9873338 C70.5912897,23.0781789 73.0436338,21 76.65904,21 L76.65904,21 Z M73.7406534,35.9270284 C73.4769715,36.2142003 73.3425755,36.5673775 73.3425755,36.9816339 C73.3425755,38.0692422 74.1382204,38.7716558 76.5931195,38.7716558 C79.2120532,38.7716558 79.8084036,38.0997819 79.8084036,37.2702836 C79.8084036,36.5008796 79.2795068,36.2467103 77.4546848,36.150658 L77.4546848,36.150658 Z M61.1423996,21 C66.4437692,21 69.3184367,24.5947522 68.9719175,29.2934888 L68.9719175,29.2934888 L57.7813238,29.2934888 C58.2324929,30.6797862 59.4786805,31.46793 61.5935686,31.46793 C63.2903913,31.46793 64.5718182,30.8692906 65.3006297,30.3965014 L65.3006297,30.3965014 L67.9681332,33.0140913 C66.5462833,34.149174 64.7458786,35 61.6624453,35 C56.3952472,35 53,32.0991253 53,27.9684159 C53,23.9003888 56.5693076,21 61.1423996,21 Z M92.2423348,24.7081134 C90.2534781,24.7081134 89.0255176,26.0838787 89.0255176,28.1285624 C89.0255176,30.143199 90.2534781,31.549504 92.2423348,31.549504 C94.2317024,31.549504 95.4264473,30.143199 95.4264473,28.1285624 C95.4264473,26.0838787 94.2317024,24.7081134 92.2423348,24.7081134 Z M76.5931195,24.1652945 C75.2322959,24.1652945 74.5030825,24.9002182 74.5030825,25.9873338 C74.5030825,27.136514 75.2322959,27.9034551 76.5931195,27.9034551 C77.952921,27.9034551 78.6821343,27.136514 78.6821343,25.9873338 C78.6821343,24.9002182 77.952921,24.1652945 76.5931195,24.1652945 Z M61.176571,24.46793 C59.3403931,24.46793 58.0931377,25.2254616 57.7124471,26.8328474 L57.7124471,26.8328474 L64.2594704,26.8328474 C64.0528403,25.351312 63.0127489,24.46793 61.176571,24.46793 Z"></path>
            </g>
        </g>
    </g>
</svg>