<svg xmlns="http://www.w3.org/2000/svg" viewBox="0 0 226.78 56.69" xmlns:v="https://vecta.io/nano"><path d="M190.28 12.22h33.12V0h-33.21a17.001 17.001 0 0 0-.31 34h19.48a5.22 5.22 0 0 1 0 10.43h0-34v12.26h33.8a17.51 17.51 0 1 0 .12-35h-19.02a4.73 4.73 0 0 1-.1-9.46h.12m-51.04.02h26.91V0H134.7c-9.56 0-16.24 6.65-17.26 17.24 0 0-.53 6.76-.54 11.1s.53 11.12.53 11.12c1 11.32 7.71 17.23 17.27 17.23h31.44V44.46h-28.57c-2.77 0-6-1.64-6.39-5 0 0-.61-6.8-.58-11.16s-.07-7.87.72-11.09c.73-2.94 3.38-4.21 6-4.78a18.78 18.78 0 0 1 2-.2m-70.17 4.71A4.8 4.8 0 0 1 74 12.22h33.11V0H73.87a17.001 17.001 0 1 0-.31 34H93a5.22 5.22 0 0 1 0 10.43H59v12.26h33.89a17.51 17.51 0 1 0 .1-35h-19a4.79 4.79 0 0 1-4.79-4.74" fill="#0071b6"/><path d="M48.19,24.27V0H22.05l6.19,6.2L9.93,24.49a3.7,3.7,0,1,0,5.15,5.31l.07-.07L25.68,19.2a13.65,13.65,0,0,1,22.51,5.07" fill="#aac931"/><path d="M0,31.89v24.8H25.7l-6.17-6.17L38.31,31.76A4.08,4.08,0,0,0,32.55,26h0L21.9,36.65a13.34,13.34,0,0,1-18.85,0h0a13.06,13.06,0,0,1-3-4.8" fill="#0071b6"/></svg>