<svg xmlns="http://www.w3.org/2000/svg" width="79.37" height="79.37" viewBox="0 0 21 21" xmlns:v="https://vecta.io/nano"><circle cx="10.5" cy="10.5" r="10.5" fill="#f9f9f9"/><path d="M16.923 9.386V2.965h-6.916l1.638 1.64L6.8 9.444a.98.98 0 0 0 .403 1.665.98.98 0 0 0 .96-.26l.019-.019 2.786-2.786a3.61 3.61 0 0 1 5.956 1.341" fill="#aac931"/><path d="M4.173 11.402v6.562h6.8L9.34 16.331l4.969-4.964a1.08 1.08 0 0 0-1.524-1.524h0l-2.818 2.818a3.53 3.53 0 0 1-4.987 0h0c-.354-.36-.625-.794-.794-1.27" fill="#0071b6"/></svg>